<mxfile host="Electron" agent="Mozilla/5.0 (Windows NT 10.0; Win64; x64) AppleWebKit/537.36 (KHTML, like Gecko) draw.io/25.0.2 Chrome/128.0.6613.186 Electron/32.2.5 Safari/537.36" version="25.0.2">
  <diagram name="Seite-1" id="veC4ftOnskPGLoC5RiaW">
    <mxGraphModel dx="1345" dy="740" grid="1" gridSize="10" guides="1" tooltips="1" connect="1" arrows="1" fold="1" page="1" pageScale="1" pageWidth="827" pageHeight="1169" math="0" shadow="0">
      <root>
        <mxCell id="0" />
        <mxCell id="1" parent="0" />
        <mxCell id="NMYGbekE-nGPQrnc-Rhj-5" value="Animalshelter" style="strokeWidth=1;shadow=0;dashed=0;align=center;html=1;shape=mxgraph.mockup.containers.window;align=left;verticalAlign=top;spacingLeft=8;strokeColor2=#008cff;strokeColor3=#c4c4c4;fontColor=#ffffff;mainText=;fontSize=17;labelBackgroundColor=none;whiteSpace=wrap;" parent="1" vertex="1">
          <mxGeometry y="105.75" width="820" height="501.5" as="geometry" />
        </mxCell>
        <mxCell id="NMYGbekE-nGPQrnc-Rhj-7" value="&lt;font style=&quot;font-size: 20px;&quot;&gt;Name&lt;/font&gt;" style="text;html=1;align=center;verticalAlign=middle;whiteSpace=wrap;rounded=0;" parent="1" vertex="1">
          <mxGeometry x="230" y="160" width="100" height="40" as="geometry" />
        </mxCell>
        <mxCell id="NMYGbekE-nGPQrnc-Rhj-9" value="&lt;font style=&quot;font-size: 20px;&quot;&gt;Birthdate&lt;/font&gt;" style="text;html=1;align=center;verticalAlign=middle;whiteSpace=wrap;rounded=0;" parent="1" vertex="1">
          <mxGeometry x="240" y="240" width="100" height="40" as="geometry" />
        </mxCell>
        <mxCell id="NMYGbekE-nGPQrnc-Rhj-11" value="&lt;font style=&quot;font-size: 20px;&quot;&gt;Gender&lt;/font&gt;" style="text;html=1;align=center;verticalAlign=middle;whiteSpace=wrap;rounded=0;" parent="1" vertex="1">
          <mxGeometry x="250" y="200" width="60" height="40" as="geometry" />
        </mxCell>
        <mxCell id="NMYGbekE-nGPQrnc-Rhj-12" value="F" style="html=1;shadow=0;dashed=0;shape=mxgraph.bootstrap.radioButton2;labelPosition=right;verticalLabelPosition=middle;align=left;verticalAlign=middle;gradientColor=#DEDEDE;fillColor=#EDEDED;checked=0;spacing=5;checkedFill=#0085FC;checkedStroke=#ffffff;" parent="1" vertex="1">
          <mxGeometry x="350" y="215" width="10" height="10" as="geometry" />
        </mxCell>
        <mxCell id="NMYGbekE-nGPQrnc-Rhj-13" value="M" style="html=1;shadow=0;dashed=0;shape=mxgraph.bootstrap.radioButton2;labelPosition=right;verticalLabelPosition=middle;align=left;verticalAlign=middle;gradientColor=#DEDEDE;fillColor=#EDEDED;checked=0;spacing=5;checkedFill=#0085FC;checkedStroke=#ffffff;" parent="1" vertex="1">
          <mxGeometry x="390" y="215" width="10" height="10" as="geometry" />
        </mxCell>
        <mxCell id="NMYGbekE-nGPQrnc-Rhj-131" value="" style="strokeWidth=1;shadow=0;dashed=0;align=center;html=1;shape=mxgraph.mockup.text.textBox;fontColor=#666666;align=left;fontSize=17;spacingLeft=4;spacingTop=-3;whiteSpace=wrap;strokeColor=#666666;mainText=" parent="1" vertex="1">
          <mxGeometry x="350" y="170" width="90" height="30" as="geometry" />
        </mxCell>
        <mxCell id="NMYGbekE-nGPQrnc-Rhj-133" value="" style="strokeWidth=1;shadow=0;dashed=0;align=center;html=1;shape=mxgraph.mockup.text.textBox;fontColor=#666666;align=left;fontSize=17;spacingLeft=4;spacingTop=-3;whiteSpace=wrap;strokeColor=#666666;mainText=" parent="1" vertex="1">
          <mxGeometry x="350" y="240" width="90" height="30" as="geometry" />
        </mxCell>
        <mxCell id="NMYGbekE-nGPQrnc-Rhj-141" value="&lt;font style=&quot;font-size: 13px;&quot;&gt;Speichern/Edit/Neu&lt;/font&gt;" style="strokeWidth=1;shadow=0;dashed=0;align=center;html=1;shape=mxgraph.mockup.buttons.button;strokeColor=default;fontColor=#ffffff;mainText=;buttonStyle=round;fontSize=17;fontStyle=1;fillColor=#005C00;whiteSpace=wrap;fillStyle=auto;gradientColor=none;" parent="1" vertex="1">
          <mxGeometry x="664" y="515" width="130" height="70" as="geometry" />
        </mxCell>
        <mxCell id="5-967bUKi_0viZ-IpESO-5" value="" style="verticalLabelPosition=bottom;html=1;verticalAlign=top;strokeWidth=1;align=center;outlineConnect=0;dashed=0;outlineConnect=0;shape=mxgraph.aws3d.image;strokeColor=none;fillColor=#777777;aspect=fixed;" vertex="1" parent="1">
          <mxGeometry x="160" y="149.6" width="70" height="120.4" as="geometry" />
        </mxCell>
        <mxCell id="5-967bUKi_0viZ-IpESO-6" value="&lt;span style=&quot;font-size: 20px;&quot;&gt;Additional Info:&lt;/span&gt;" style="text;html=1;align=center;verticalAlign=middle;whiteSpace=wrap;rounded=0;" vertex="1" parent="1">
          <mxGeometry x="160" y="330" width="140" height="40" as="geometry" />
        </mxCell>
        <mxCell id="5-967bUKi_0viZ-IpESO-7" value="" style="strokeWidth=1;shadow=0;dashed=0;align=center;html=1;shape=mxgraph.mockup.text.textBox;fontColor=#666666;align=left;fontSize=17;spacingLeft=4;spacingTop=-3;whiteSpace=wrap;strokeColor=#666666;mainText=" vertex="1" parent="1">
          <mxGeometry x="250" y="285" width="80" height="30" as="geometry" />
        </mxCell>
        <mxCell id="5-967bUKi_0viZ-IpESO-9" value="List" style="swimlane;fontStyle=0;childLayout=stackLayout;horizontal=1;startSize=30;fillColor=none;horizontalStack=0;resizeParent=1;resizeParentMax=0;resizeLast=0;collapsible=1;marginBottom=0;html=1;movable=1;resizable=1;rotatable=1;deletable=1;editable=1;locked=0;connectable=1;" vertex="1" parent="1">
          <mxGeometry y="140" width="130" height="368" as="geometry" />
        </mxCell>
        <mxCell id="5-967bUKi_0viZ-IpESO-27" value="Item 1" style="text;strokeColor=none;fillColor=none;align=left;verticalAlign=top;spacingLeft=4;spacingRight=4;overflow=hidden;rotatable=1;points=[[0,0.5],[1,0.5]];portConstraint=eastwest;whiteSpace=wrap;html=1;movable=1;resizable=1;deletable=1;editable=1;locked=0;connectable=1;" vertex="1" parent="5-967bUKi_0viZ-IpESO-9">
          <mxGeometry y="30" width="130" height="26" as="geometry" />
        </mxCell>
        <mxCell id="5-967bUKi_0viZ-IpESO-41" style="text;strokeColor=none;fillColor=none;align=left;verticalAlign=top;spacingLeft=4;spacingRight=4;overflow=hidden;rotatable=1;points=[[0,0.5],[1,0.5]];portConstraint=eastwest;whiteSpace=wrap;html=1;movable=1;resizable=1;deletable=1;editable=1;locked=0;connectable=1;" vertex="1" parent="5-967bUKi_0viZ-IpESO-9">
          <mxGeometry y="56" width="130" height="26" as="geometry" />
        </mxCell>
        <mxCell id="5-967bUKi_0viZ-IpESO-40" style="text;strokeColor=none;fillColor=none;align=left;verticalAlign=top;spacingLeft=4;spacingRight=4;overflow=hidden;rotatable=1;points=[[0,0.5],[1,0.5]];portConstraint=eastwest;whiteSpace=wrap;html=1;movable=1;resizable=1;deletable=1;editable=1;locked=0;connectable=1;" vertex="1" parent="5-967bUKi_0viZ-IpESO-9">
          <mxGeometry y="82" width="130" height="26" as="geometry" />
        </mxCell>
        <mxCell id="5-967bUKi_0viZ-IpESO-39" style="text;strokeColor=none;fillColor=none;align=left;verticalAlign=top;spacingLeft=4;spacingRight=4;overflow=hidden;rotatable=1;points=[[0,0.5],[1,0.5]];portConstraint=eastwest;whiteSpace=wrap;html=1;movable=1;resizable=1;deletable=1;editable=1;locked=0;connectable=1;" vertex="1" parent="5-967bUKi_0viZ-IpESO-9">
          <mxGeometry y="108" width="130" height="26" as="geometry" />
        </mxCell>
        <mxCell id="5-967bUKi_0viZ-IpESO-38" style="text;strokeColor=none;fillColor=none;align=left;verticalAlign=top;spacingLeft=4;spacingRight=4;overflow=hidden;rotatable=1;points=[[0,0.5],[1,0.5]];portConstraint=eastwest;whiteSpace=wrap;html=1;movable=1;resizable=1;deletable=1;editable=1;locked=0;connectable=1;" vertex="1" parent="5-967bUKi_0viZ-IpESO-9">
          <mxGeometry y="134" width="130" height="26" as="geometry" />
        </mxCell>
        <mxCell id="5-967bUKi_0viZ-IpESO-37" style="text;strokeColor=none;fillColor=none;align=left;verticalAlign=top;spacingLeft=4;spacingRight=4;overflow=hidden;rotatable=1;points=[[0,0.5],[1,0.5]];portConstraint=eastwest;whiteSpace=wrap;html=1;movable=1;resizable=1;deletable=1;editable=1;locked=0;connectable=1;" vertex="1" parent="5-967bUKi_0viZ-IpESO-9">
          <mxGeometry y="160" width="130" height="26" as="geometry" />
        </mxCell>
        <mxCell id="5-967bUKi_0viZ-IpESO-36" style="text;strokeColor=none;fillColor=none;align=left;verticalAlign=top;spacingLeft=4;spacingRight=4;overflow=hidden;rotatable=1;points=[[0,0.5],[1,0.5]];portConstraint=eastwest;whiteSpace=wrap;html=1;movable=1;resizable=1;deletable=1;editable=1;locked=0;connectable=1;" vertex="1" parent="5-967bUKi_0viZ-IpESO-9">
          <mxGeometry y="186" width="130" height="26" as="geometry" />
        </mxCell>
        <mxCell id="5-967bUKi_0viZ-IpESO-35" style="text;strokeColor=none;fillColor=none;align=left;verticalAlign=top;spacingLeft=4;spacingRight=4;overflow=hidden;rotatable=1;points=[[0,0.5],[1,0.5]];portConstraint=eastwest;whiteSpace=wrap;html=1;movable=1;resizable=1;deletable=1;editable=1;locked=0;connectable=1;" vertex="1" parent="5-967bUKi_0viZ-IpESO-9">
          <mxGeometry y="212" width="130" height="26" as="geometry" />
        </mxCell>
        <mxCell id="5-967bUKi_0viZ-IpESO-34" style="text;strokeColor=none;fillColor=none;align=left;verticalAlign=top;spacingLeft=4;spacingRight=4;overflow=hidden;rotatable=1;points=[[0,0.5],[1,0.5]];portConstraint=eastwest;whiteSpace=wrap;html=1;movable=1;resizable=1;deletable=1;editable=1;locked=0;connectable=1;" vertex="1" parent="5-967bUKi_0viZ-IpESO-9">
          <mxGeometry y="238" width="130" height="26" as="geometry" />
        </mxCell>
        <mxCell id="5-967bUKi_0viZ-IpESO-33" style="text;strokeColor=none;fillColor=none;align=left;verticalAlign=top;spacingLeft=4;spacingRight=4;overflow=hidden;rotatable=1;points=[[0,0.5],[1,0.5]];portConstraint=eastwest;whiteSpace=wrap;html=1;movable=1;resizable=1;deletable=1;editable=1;locked=0;connectable=1;" vertex="1" parent="5-967bUKi_0viZ-IpESO-9">
          <mxGeometry y="264" width="130" height="26" as="geometry" />
        </mxCell>
        <mxCell id="5-967bUKi_0viZ-IpESO-32" style="text;strokeColor=none;fillColor=none;align=left;verticalAlign=top;spacingLeft=4;spacingRight=4;overflow=hidden;rotatable=1;points=[[0,0.5],[1,0.5]];portConstraint=eastwest;whiteSpace=wrap;html=1;movable=1;resizable=1;deletable=1;editable=1;locked=0;connectable=1;" vertex="1" parent="5-967bUKi_0viZ-IpESO-9">
          <mxGeometry y="290" width="130" height="26" as="geometry" />
        </mxCell>
        <mxCell id="5-967bUKi_0viZ-IpESO-26" style="text;strokeColor=none;fillColor=none;align=left;verticalAlign=top;spacingLeft=4;spacingRight=4;overflow=hidden;rotatable=1;points=[[0,0.5],[1,0.5]];portConstraint=eastwest;whiteSpace=wrap;html=1;movable=1;resizable=1;deletable=1;editable=1;locked=0;connectable=1;" vertex="1" parent="5-967bUKi_0viZ-IpESO-9">
          <mxGeometry y="316" width="130" height="26" as="geometry" />
        </mxCell>
        <mxCell id="5-967bUKi_0viZ-IpESO-29" value="&lt;div&gt;Item N&lt;/div&gt;" style="text;strokeColor=none;fillColor=none;align=left;verticalAlign=top;spacingLeft=4;spacingRight=4;overflow=hidden;rotatable=1;points=[[0,0.5],[1,0.5]];portConstraint=eastwest;whiteSpace=wrap;html=1;movable=1;resizable=1;deletable=1;editable=1;locked=0;connectable=1;" vertex="1" parent="5-967bUKi_0viZ-IpESO-9">
          <mxGeometry y="342" width="130" height="26" as="geometry" />
        </mxCell>
        <mxCell id="5-967bUKi_0viZ-IpESO-43" value="&lt;span style=&quot;font-size: 20px;&quot;&gt;Room&lt;/span&gt;" style="text;html=1;align=center;verticalAlign=middle;whiteSpace=wrap;rounded=0;" vertex="1" parent="1">
          <mxGeometry x="145" y="280" width="100" height="40" as="geometry" />
        </mxCell>
        <mxCell id="5-967bUKi_0viZ-IpESO-44" value="&lt;font style=&quot;font-size: 13px;&quot;&gt;There could be lots of stuff standing here so I will just type a lot.&lt;/font&gt;" style="text;html=1;align=center;verticalAlign=middle;whiteSpace=wrap;rounded=0;" vertex="1" parent="1">
          <mxGeometry x="160" y="380" width="130" height="60" as="geometry" />
        </mxCell>
        <mxCell id="5-967bUKi_0viZ-IpESO-45" value="&lt;font style=&quot;font-size: 13px;&quot;&gt;Cancel/Delete&lt;/font&gt;" style="strokeWidth=1;shadow=0;dashed=0;align=center;html=1;shape=mxgraph.mockup.buttons.button;strokeColor=#6F0000;fontColor=#ffffff;mainText=;buttonStyle=round;fontSize=17;fontStyle=1;fillColor=#a20025;whiteSpace=wrap;fillStyle=auto;" vertex="1" parent="1">
          <mxGeometry x="524" y="515" width="130" height="70" as="geometry" />
        </mxCell>
        <mxCell id="5-967bUKi_0viZ-IpESO-53" value="&lt;font style=&quot;font-size: 30px;&quot;&gt;+&lt;/font&gt;" style="strokeWidth=1;shadow=0;dashed=0;align=center;html=1;shape=mxgraph.mockup.buttons.button;mainText=;buttonStyle=round;fontSize=17;fontStyle=1;whiteSpace=wrap;fillStyle=auto;fillColor=#f5f5f5;strokeColor=#666666;fontColor=#333333;" vertex="1" parent="1">
          <mxGeometry x="340" y="476.5" width="30" height="23" as="geometry" />
        </mxCell>
        <mxCell id="5-967bUKi_0viZ-IpESO-56" value="&lt;span style=&quot;font-size: 20px;&quot;&gt;Patron&lt;/span&gt;" style="text;html=1;align=center;verticalAlign=middle;whiteSpace=wrap;rounded=0;" vertex="1" parent="1">
          <mxGeometry x="145" y="468" width="100" height="40" as="geometry" />
        </mxCell>
        <mxCell id="5-967bUKi_0viZ-IpESO-57" value="Patron" style="rounded=1;fillColor=#F1F2F4;strokeColor=none;html=1;whiteSpace=wrap;fontColor=#596780;align=left;fontSize=12;spacingLeft=10;sketch=0;" vertex="1" parent="1">
          <mxGeometry x="245" y="471.5" width="80" height="33" as="geometry" />
        </mxCell>
        <mxCell id="5-967bUKi_0viZ-IpESO-58" value="" style="shape=triangle;direction=south;fillColor=#596780;strokeColor=none;html=1;sketch=0;" vertex="1" parent="5-967bUKi_0viZ-IpESO-57">
          <mxGeometry x="1" y="0.5" width="12" height="6" relative="1" as="geometry">
            <mxPoint x="-20" y="-3" as="offset" />
          </mxGeometry>
        </mxCell>
        <mxCell id="5-967bUKi_0viZ-IpESO-59" value="&lt;span style=&quot;font-size: 20px;&quot;&gt;Incidents&lt;/span&gt;" style="text;html=1;align=center;verticalAlign=middle;whiteSpace=wrap;rounded=0;" vertex="1" parent="1">
          <mxGeometry x="554" y="160" width="100" height="40" as="geometry" />
        </mxCell>
        <mxCell id="5-967bUKi_0viZ-IpESO-60" value="&lt;font style=&quot;font-size: 30px;&quot;&gt;+&lt;/font&gt;" style="strokeWidth=1;shadow=0;dashed=0;align=center;html=1;shape=mxgraph.mockup.buttons.button;mainText=;buttonStyle=round;fontSize=17;fontStyle=1;whiteSpace=wrap;fillStyle=auto;fillColor=#f5f5f5;strokeColor=#666666;fontColor=#333333;" vertex="1" parent="1">
          <mxGeometry x="694" y="170" width="30" height="23" as="geometry" />
        </mxCell>
        <mxCell id="5-967bUKi_0viZ-IpESO-67" value="&lt;span style=&quot;font-size: 20px;&quot;&gt;Examination&lt;/span&gt;" style="text;html=1;align=center;verticalAlign=middle;whiteSpace=wrap;rounded=0;" vertex="1" parent="1">
          <mxGeometry x="564" y="330" width="100" height="40" as="geometry" />
        </mxCell>
        <mxCell id="5-967bUKi_0viZ-IpESO-68" value="&lt;font style=&quot;font-size: 30px;&quot;&gt;+&lt;/font&gt;" style="strokeWidth=1;shadow=0;dashed=0;align=center;html=1;shape=mxgraph.mockup.buttons.button;mainText=;buttonStyle=round;fontSize=17;fontStyle=1;whiteSpace=wrap;fillStyle=auto;fillColor=#f5f5f5;strokeColor=#666666;fontColor=#333333;" vertex="1" parent="1">
          <mxGeometry x="694" y="338.5" width="30" height="23" as="geometry" />
        </mxCell>
        <mxCell id="5-967bUKi_0viZ-IpESO-70" value="&lt;span style=&quot;font-size: 13px;&quot;&gt;01.01.1970&lt;/span&gt;" style="text;html=1;align=center;verticalAlign=middle;whiteSpace=wrap;rounded=0;" vertex="1" parent="1">
          <mxGeometry x="554" y="370" width="80" height="30" as="geometry" />
        </mxCell>
        <mxCell id="5-967bUKi_0viZ-IpESO-71" value="&lt;span style=&quot;font-size: 13px;&quot;&gt;Aufnahmecheck&lt;/span&gt;" style="text;html=1;align=center;verticalAlign=middle;whiteSpace=wrap;rounded=0;" vertex="1" parent="1">
          <mxGeometry x="644" y="370" width="110" height="30" as="geometry" />
        </mxCell>
        <mxCell id="5-967bUKi_0viZ-IpESO-72" value="&lt;span style=&quot;font-size: 13px;&quot;&gt;02.01.1970&lt;/span&gt;" style="text;html=1;align=center;verticalAlign=middle;whiteSpace=wrap;rounded=0;" vertex="1" parent="1">
          <mxGeometry x="554" y="400" width="80" height="30" as="geometry" />
        </mxCell>
        <mxCell id="5-967bUKi_0viZ-IpESO-73" value="&lt;span style=&quot;font-size: 13px;&quot;&gt;Untersuchung&lt;/span&gt;" style="text;html=1;align=center;verticalAlign=middle;whiteSpace=wrap;rounded=0;" vertex="1" parent="1">
          <mxGeometry x="644" y="400" width="110" height="30" as="geometry" />
        </mxCell>
        <mxCell id="5-967bUKi_0viZ-IpESO-74" value="&lt;span style=&quot;font-size: 13px;&quot;&gt;01.01.1970&lt;/span&gt;" style="text;html=1;align=center;verticalAlign=middle;whiteSpace=wrap;rounded=0;" vertex="1" parent="1">
          <mxGeometry x="554" y="210" width="80" height="30" as="geometry" />
        </mxCell>
        <mxCell id="5-967bUKi_0viZ-IpESO-75" value="&lt;span style=&quot;font-size: 13px;&quot;&gt;Aufnahme&lt;/span&gt;" style="text;html=1;align=center;verticalAlign=middle;whiteSpace=wrap;rounded=0;" vertex="1" parent="1">
          <mxGeometry x="644" y="210" width="110" height="30" as="geometry" />
        </mxCell>
        <mxCell id="5-967bUKi_0viZ-IpESO-76" value="&lt;span style=&quot;font-size: 13px;&quot;&gt;Fraum Kaminski&lt;/span&gt;" style="text;html=1;align=center;verticalAlign=middle;whiteSpace=wrap;rounded=0;" vertex="1" parent="1">
          <mxGeometry x="160" y="515" width="110" height="30" as="geometry" />
        </mxCell>
      </root>
    </mxGraphModel>
  </diagram>
</mxfile>
